# xmcd
#
# Track frame offsets:
#  150
#  12228
#  24003
#  33565
#  45450
#  55125
#  68403
#  83628
#  97200
#  106315
#  116853
#  127840
#  139538
#  151988
#  160953
#  171153
#
# Disc length: 2423 seconds
#
# Revision: 10
# Processed by: cddbd v1.5.1PL2 Copyright (c) Steve Scherf et al.
# Submitted via: Collectorz.com_Music_Collector 6.11
#
DISCID=c1097510
DTITLE=Various Artist - Evergreens A Go Go Vol. 3
DYEAR=1987
DGENRE=
TTITLE0=Frankie Laine - High Noon
TTITLE1=Billy Joe Royal - Down In The Boondocks
TTITLE2=The Swinging Blue Jeans - Hippy Hippy Shake
TTITLE3=Chubby Checker - The Twist
TTITLE4=The American Breed - Bend Me, Shape Me
TTITLE5=Chad Allen - The Guess Who - Shakin' All Over
TTITLE6=Don Fardon - Indian Reservation
TTITLE7=Trini Lopez - If I Had A Hammer
TTITLE8=The Beach Boys - Surfin' Safari
TTITLE9=The Archies - Over And Over
TTITLE10=Wanda Jackson - Sweet Nothin's
TTITLE11=Johnny Cymbal - Mr. Bassman
TTITLE12=Dave Berry - Memphis Tennessee
TTITLE13=Ritchie Valens - La Bamba
TTITLE14=Jimmie Rogers - Honey Comb
TTITLE15=Pat Boone - Ain't That A Shame
EXTD=
EXTT0=
EXTT1=
EXTT2=
EXTT3=
EXTT4=
EXTT5=
EXTT6=
EXTT7=
EXTT8=
EXTT9=
EXTT10=
EXTT11=
EXTT12=
EXTT13=
EXTT14=
EXTT15=
PLAYORDER=
